<svg 
	xmlns="http://www.w3.org/2000/svg" 
	xmlns:xlink="http://www.w3.org/1999/xlink"
	viewBox="0 0 50 50"
	>
	<style type="text/css">
		.st2{fill:#fff;}
		.st1{fill:#ddd;}
		.st0{
			fill:#EFB4B4;
			opacity: 0;
		}
	</style>
	<rect x="15.5632" y="10.1875" class="st0" width="18.8735" height="17.75"/>
	<path class="st1" d="M25,0.249l-2.0313,5.4697L25,10.876c4.491,0,8.144,3.653,8.144,8.144c0,4.49-3.654,8.143-8.144,8.143
		L22.9688,37.25L25,49.752l14.906-18.74c2.676-3.385,4.091-7.452,4.091-11.765C43.997,8.771,35.475,0.249,25,0.249z"/>
	<path class="st2" d="M25,10.876V0.249c-10.475,0-18.997,8.522-18.997,18.9969c0,4.313,1.415,8.381,4.095,11.769L25,49.751V27.164
		c-4.491,0-8.144-3.654-8.144-8.144C16.856,14.528,20.51,10.876,25,10.876z"/>
</svg>
