<svg 
	xmlns="http://www.w3.org/2000/svg" 
	xmlns:xlink="http://www.w3.org/1999/xlink"
	viewBox="0 0 200 200"
	>
	<style type="text/css">
		.st0{fill:#ffffff}
	</style>
	<path class="st0" d="M119.3,173H80.7c-2.8,0-5-2.2-5-5s2.2-5,5-5h38.7c2.8,0,5,2.2,5,5S122.1,173,119.3,173z"/>
	<path class="st0" d="M143.9,11.7c4,0,7.2,3.2,7.2,7.2v162.2c0,4-3.2,7.2-7.2,7.2H56.1c-4,0-7.2-3.2-7.2-7.2V18.9
		c0-4,3.2-7.2,7.2-7.2H143.9 M143.9,1.7H56.1c-9.5,0-17.2,7.7-17.2,17.2v162.2c0,9.5,7.7,17.2,17.2,17.2h87.8
		c9.5,0,17.2-7.7,17.2-17.2V18.9C161.1,9.4,153.4,1.7,143.9,1.7L143.9,1.7z"/>
</svg>
