<svg xmlns="http://www.w3.org/2000/svg" viewBox="0 0 80 52">
  <defs>
    <style>
      .a {
        fill: #a58f43;
      }
    </style>
  </defs>
  <title>r1_number</title>
  <g>
    <path class="a" d="M40,14C17.91,14,0,25.64,0,40S17.91,66,40,66,80,54.36,80,40,62.09,14,40,14Zm0,48C20.49,62,4,51.93,4,40S20.49,18,40,18,76,28.07,76,40,59.51,62,40,62Z" transform="translate(0 -14)"/>
    <circle class="a" cx="16.08" cy="26.08" r="4"/>
    <circle class="a" cx="64.08" cy="26.08" r="4"/>
    <polygon class="a" points="33.75 10 33.75 14.17 37.75 14.17 37.75 42.08 41.75 42.08 41.75 10 37.75 10 33.75 10"/>
  </g>
</svg>
