<?xml version="1.0" encoding="utf-8"?>
<!-- Generator: Adobe Illustrator 22.1.0, SVG Export Plug-In . SVG Version: 6.00 Build 0)  -->
<svg version="1.1" id="Слой_2" xmlns="http://www.w3.org/2000/svg" xmlns:xlink="http://www.w3.org/1999/xlink" x="0px" y="0px"
	 viewBox="0 0 80 80" style="enable-background:new 0 0 80 80;" xml:space="preserve">
<style type="text/css">
	.st0{fill:#A58F43;}
</style>
<g>
	<path class="st0" d="M40,10.5C18.5,10.5,1,23.7,1,40s17.5,29.5,39,29.5S79,56.3,79,40S61.5,10.5,40,10.5z M40,61.5
		C23.2,61.5,9,51.7,9,40c0-11.7,14.2-21.5,31-21.5S71,28.3,71,40C71,51.7,56.8,61.5,40,61.5z"/>
	<polygon class="st0" points="32.3,24.1 32.3,32.1 36,32.1 36,55.9 44,55.9 44,32.1 44,24.1 36,24.1 	"/>
	<circle class="st0" cx="20" cy="40" r="4"/>
	<circle class="st0" cx="60" cy="40" r="4"/>
</g>
</svg>
