<svg 
	xmlns="http://www.w3.org/2000/svg" 
	xmlns:xlink="http://www.w3.org/1999/xlink"
	viewBox="0 0 512 512">
<style type="text/css">
	.st0{fill:#fff}
</style>
<path class="st0" d="M256,0.4C114.8,0.4,0.4,114.8,0.4,256S114.8,511.6,256,511.6S511.6,397.2,511.6,256S397.2,0.4,256,0.4z
	 M256,490.4C126.6,490.4,21.6,385.4,21.6,256S126.6,21.6,256,21.6S490.4,126.6,490.4,256S385.4,490.4,256,490.4z"/>
<path class="st0" d="M340.3,248.7c11.4-16.7,17.9-36.9,17.5-58.7C357,134.3,310.8,89.2,255,89.8c-55.8,0.5-100.9,45.9-100.9,101.8
	c0,21.2,6.5,40.9,17.6,57.2c-40.2,20-72.4,53.8-90.1,95.3c-1.3,3.1-1.1,6.6,0.5,9.5c0,0.1,0.1,0.2,0.1,0.2
	c4.4,7.8,15.7,7.1,19.2-1.1c16.5-38.4,46.9-69.5,84.8-86.9c18.2,17.1,42.7,27.6,69.7,27.6s51.5-10.5,69.7-27.6
	c38,17.3,68.4,48.4,84.8,86.9c3.5,8.2,14.8,8.9,19.2,1.1c0-0.1,0.1-0.2,0.1-0.2c1.6-2.9,1.8-6.4,0.5-9.5
	C412.6,302.6,380.5,268.7,340.3,248.7z M319.8,240c-5,6.5-11,12.3-17.7,17c-13,9.2-28.9,14.6-46.1,14.6s-33-5.4-46.1-14.6
	c-6.7-4.7-12.7-10.5-17.7-17c-10.2-13.5-16.3-30.2-16.3-48.5c0-44.2,35.9-80.1,80.1-80.1s80.1,35.9,80.1,80.1
	C336.1,209.8,330,226.6,319.8,240z"/>
</svg>
