<svg 
	xmlns="http://www.w3.org/2000/svg" 
	viewBox="0 0 400 314.41">

	<style> .cls-1{ fill: #a58f43 } </style>
	
	<path class="cls-1" d="M314.23,276.57a42.92,42.92,0,1,0,42.91,42.92A42.93,42.93,0,0,0,314.23,276.57Zm.13,64.29a21.43,21.43,0,1,1,21.43-21.43A21.43,21.43,0,0,1,314.36,340.86Z" transform="translate(0 -48)"/>
	<path class="cls-1" d="M0,48H243.86V249H0Z" transform="translate(0 -48)"/>
	<path class="cls-1" d="M100.06,276.57A42.92,42.92,0,1,0,143,319.49,42.93,42.93,0,0,0,100.06,276.57Zm.08,64.29a21.43,21.43,0,1,1,21.43-21.43A21.44,21.44,0,0,1,100.14,340.86Z" transform="translate(0 -48)"/>
	<path class="cls-1" d="M392.47,192.6l-41.4-72.45a28.56,28.56,0,0,0-24.77-14.4l-83.44-.1V248H0v57.14H36.68a65,65,0,0,1,126.76,0h87.4a65,65,0,0,1,126.54-.89v.89H400v-84.2A57.12,57.12,0,0,0,392.47,192.6Zm-121,12.54v-71.4l54.84.09L367,205.14Z" transform="translate(0 -48)"/>
	
</svg>