<svg 
	xmlns="http://www.w3.org/2000/svg" 
	xmlns:xlink="http://www.w3.org/1999/xlink"
	viewBox="0 0 485 485"
	>
	<path fill="#a58f43" d="M485,235.402L378.071,99.339h-89.083l-40.314-68.64H46.729L0,110.26v284.481h51.284   c1.811,33.147,29.344,59.559,62.935,59.559s61.124-26.412,62.935-59.559h130.692c1.811,33.147,29.344,59.559,62.935,59.559   s61.124-26.412,62.935-59.559H485V235.402z M167.491,268.23h-39.58v-57.713h39.58V268.23z M97.911,180.517v87.713H30V129.339   h235.402V268.23h-67.911v-87.713H97.911z M63.9,60.699h167.602l22.695,38.64H41.206L63.9,60.699z M114.219,424.301   c-18.216,0-33.035-14.819-33.035-33.035s14.819-33.036,33.035-33.036s33.035,14.82,33.035,33.036S132.435,424.301,114.219,424.301z    M114.219,328.23c-25.286,0-47.129,14.973-57.163,36.512H30V298.23h235.402v66.512h-94.021   C161.347,343.203,139.505,328.23,114.219,328.23z M370.781,424.301c-18.216,0-33.035-14.819-33.035-33.035   s14.819-33.036,33.035-33.036s33.035,14.82,33.035,33.036S388.997,424.301,370.781,424.301z M455,364.742h-27.056   c-10.034-21.539-31.877-36.512-57.163-36.512s-47.129,14.973-57.163,36.512h-18.216V129.339h68.089L455,245.78V364.742z"/>
</svg>
