<svg 
	xmlns="http://www.w3.org/2000/svg" 
	xmlns:xlink="http://www.w3.org/1999/xlink"
	viewBox="0 0 200 200"
	>
	<style type="text/css">
		.st0{fill:#ffffff}
	</style>
	<path class="st0" d="M100,40.6c-33.7,0-61.1,27.4-61.1,61.1s27.4,61.1,61.1,61.1s61.1-27.4,61.1-61.1S133.7,40.6,100,40.6z
		M68.6,142c1.6-10.6,8.4-19.5,17.8-23.9c4,2.3,8.7,3.6,13.6,3.6c4.9,0,9.6-1.3,13.6-3.6c9.4,4.5,16.2,13.3,17.8,23.9
		c-8.7,6.8-19.6,10.8-31.4,10.8C88.2,152.8,77.3,148.7,68.6,142z M100,111.6c-9.6,0-17.4-7.8-17.4-17.4s7.8-17.4,17.4-17.4
		s17.4,7.8,17.4,17.4S109.6,111.6,100,111.6z M139.7,133.8c-3.1-9.6-9.6-17.6-18.1-22.8c3.6-4.6,5.7-10.4,5.7-16.7
		c0-15.1-12.3-27.4-27.4-27.4S72.6,79.1,72.6,94.3c0,6.3,2.1,12.1,5.7,16.7c-8.5,5.1-14.9,13.2-18,22.8c-7.1-8.8-11.4-19.9-11.4-32.1
		c0-28.2,22.9-51.1,51.1-51.1s51.1,22.9,51.1,51.1C151.1,113.8,146.8,125,139.7,133.8z"/>
</svg>
